<svg fill="#F22F46" role="img" viewBox="0 0 24 24" xmlns="http://www.w3.org/2000/svg"><title>Twilio</title><path d="M12 0C5.381-.008.008 5.352 0 11.971V12c.008 6.619 5.381 11.992 12 12 6.619-.008 11.992-5.381 12-12C23.992 5.381 18.619.008 12 0zm0 20.801c-4.846.015-8.786-3.906-8.801-8.752V12c.015-4.846 3.955-8.767 8.801-8.782 4.846.015 8.786 3.936 8.801 8.782v.049c-.015 4.846-3.955 8.767-8.801 8.782zm5.44-11.76c0-1.359-1.12-2.479-2.481-2.479-1.366 0-2.48 1.12-2.48 2.479 0 1.366 1.114 2.48 2.48 2.48 1.361-.001 2.481-1.114 2.481-2.48zm-5.84 0c0-1.359-1.12-2.479-2.48-2.479-1.365 0-2.479 1.12-2.479 2.479 0 1.366 1.114 2.481 2.479 2.481 1.36 0 2.48-1.115 2.48-2.481zm2.92 5.919c0-1.36-1.12-2.48-2.481-2.48-1.365 0-2.479 1.12-2.479 2.48 0 1.361 1.114 2.481 2.479 2.481 1.361-.001 2.481-1.12 2.481-2.481zm-5.84 0c0-1.36-1.119-2.48-2.48-2.48-1.365 0-2.479 1.12-2.479 2.48 0 1.361 1.114 2.481 2.479 2.481 1.361 0 2.48-1.12 2.48-2.481z"/></svg>

