<svg width="200" height="200" viewBox="0 0 200 200" xmlns="http://www.w3.org/2000/svg">
  <!-- Background circle with gradient -->
  <defs>
    <linearGradient id="yellowGradient" x1="0%" y1="0%" x2="100%" y2="100%">
      <stop offset="0%" style="stop-color:#FFD700;stop-opacity:1" />
      <stop offset="50%" style="stop-color:#FFA500;stop-opacity:1" />
      <stop offset="100%" style="stop-color:#FF8C00;stop-opacity:1" />
    </linearGradient>
  </defs>
  
  <!-- Main circle background -->
  <circle cx="100" cy="100" r="90" fill="url(#yellowGradient)" />
  
  <!-- Robot Head -->
  <rect x="60" y="50" width="80" height="90" rx="10" fill="#FFFFFF" />
  
  <!-- Robot Eyes (happy expression) -->
  <circle cx="85" cy="80" r="8" fill="#FF8C00" />
  <circle cx="115" cy="80" r="8" fill="#FF8C00" />
  <circle cx="87" cy="78" r="4" fill="#FFFFFF" />
  <circle cx="117" cy="78" r="4" fill="#FFFFFF" />
  
  <!-- Happy Smile -->
  <path d="M 80 105 Q 100 120, 120 105" stroke="#FF8C00" stroke-width="6" fill="none" stroke-linecap="round" />
  
  <!-- Robot Antenna -->
  <circle cx="100" cy="50" r="6" fill="#FFFFFF" />
  <line x1="100" y1="50" x2="100" y2="40" stroke="#FFFFFF" stroke-width="4" stroke-linecap="round" />
  <circle cx="100" cy="40" r="4" fill="#FFD700" />
  
  <!-- Robot Body/Neck -->
  <rect x="75" y="140" width="50" height="30" rx="5" fill="#FFFFFF" />
  
  <!-- Robot Chest Panel (speech/accent indicator) -->
  <rect x="85" y="145" width="30" height="20" rx="3" fill="#FFD700" />
  <path d="M 90 150 Q 95 155, 100 150 T 110 150" stroke="#FF8C00" stroke-width="2" fill="none" stroke-linecap="round" />
</svg>
